{
	"asset":{
		"generator":"Khronos glTF Blender I/O v4.3.47",
		"version":"2.0"
	},
	"extensionsUsed":[
		"KHR_materials_emissive_strength"
	],
	"scene":0,
	"scenes":[
		{
			"name":"Scene",
			"nodes":[
				0,
				1,
				2,
				3,
				4
			]
		}
	],
	"nodes":[
		{
			"mesh":0,
			"name":"AKS74_005",
			"rotation":[
				-0.44043394923210144,
				-0.5626158714294434,
				0.45305266976356506,
				0.5331272482872009
			],
			"scale":[
				0.30804580450057983,
				0.3080464005470276,
				0.3080468773841858
			],
			"translation":[
				-1.231888771057129,
				-1.4556891918182373,
				-1.8771247863769531
			]
		},
		{
			"mesh":1,
			"name":"sky",
			"rotation":[
				-0.44043394923210144,
				-0.5626158714294434,
				0.45305266976356506,
				0.5331272482872009
			],
			"scale":[
				0.30804580450057983,
				0.3080464005470276,
				0.3080468773841858
			],
			"translation":[
				0.2458488941192627,
				-1.4556891918182373,
				-3.013296604156494
			]
		},
		{
			"mesh":2,
			"name":"AKS74_004",
			"rotation":[
				-0.44043394923210144,
				-0.5626158714294434,
				0.45305266976356506,
				0.5331272482872009
			],
			"scale":[
				0.30804580450057983,
				0.3080464005470276,
				0.3080468773841858
			],
			"translation":[
				0.2458488941192627,
				-1.4556891918182373,
				-3.013296604156494
			]
		},
		{
			"mesh":3,
			"name":"sky.001",
			"rotation":[
				-0.44043394923210144,
				-0.5626158714294434,
				0.45305266976356506,
				0.5331272482872009
			],
			"scale":[
				0.30804580450057983,
				0.3080464005470276,
				0.3080468773841858
			],
			"translation":[
				0.2458488941192627,
				-1.4556891918182373,
				-3.013296604156494
			]
		},
		{
			"mesh":4,
			"name":"sky.002",
			"rotation":[
				-0.44043394923210144,
				-0.5626158714294434,
				0.45305266976356506,
				0.5331272482872009
			],
			"scale":[
				0.30804580450057983,
				0.3080464005470276,
				0.3080468773841858
			],
			"translation":[
				0.2458488941192627,
				-1.4556891918182373,
				-3.013296604156494
			]
		}
	],
	"materials":[
		{
			"doubleSided":true,
			"name":"Material_018",
			"pbrMetallicRoughness":{
				"baseColorFactor":[
					0.8000005483627319,
					0.8000005483627319,
					0.8000005483627319,
					1
				],
				"metallicFactor":0,
				"roughnessFactor":0.5
			}
		},
		{
			"alphaMode":"BLEND",
			"doubleSided":true,
			"emissiveFactor":[
				1,
				1,
				1
			],
			"extensions":{
				"KHR_materials_emissive_strength":{
					"emissiveStrength":1.7000000476837158
				}
			},
			"name":"Material_010",
			"pbrMetallicRoughness":{
				"baseColorFactor":[
					0.8000005483627319,
					0.8000005483627319,
					0.8000005483627319,
					0.15454499423503876
				],
				"metallicFactor":0,
				"roughnessFactor":0.5
			}
		},
		{
			"alphaMode":"BLEND",
			"doubleSided":true,
			"emissiveFactor":[
				1,
				1,
				1
			],
			"extensions":{
				"KHR_materials_emissive_strength":{
					"emissiveStrength":1.7000000476837158
				}
			},
			"name":"Material_009",
			"pbrMetallicRoughness":{
				"baseColorFactor":[
					0.8000005483627319,
					0.8000005483627319,
					0.8000005483627319,
					0.15454499423503876
				],
				"metallicFactor":0,
				"roughnessFactor":0.5
			}
		},
		{
			"doubleSided":true,
			"name":"Material_007",
			"pbrMetallicRoughness":{
				"baseColorFactor":[
					0.8000005483627319,
					0.8000005483627319,
					0.8000005483627319,
					1
				],
				"metallicFactor":0,
				"roughnessFactor":0.5
			}
		},
		{
			"doubleSided":true,
			"name":"Material_011",
			"pbrMetallicRoughness":{
				"baseColorFactor":[
					0.46571046113967896,
					0.46571046113967896,
					0.46571046113967896,
					1
				],
				"metallicFactor":0,
				"roughnessFactor":0.5
			}
		},
		{
			"doubleSided":true,
			"name":"Material_012",
			"pbrMetallicRoughness":{
				"baseColorFactor":[
					0.8000005483627319,
					0.8000005483627319,
					0.8000005483627319,
					1
				],
				"metallicFactor":0,
				"roughnessFactor":0.5
			}
		},
		{
			"doubleSided":true,
			"name":"sand",
			"pbrMetallicRoughness":{
				"baseColorFactor":[
					0.752938449382782,
					0.5209961533546448,
					0.2874407470226288,
					1
				],
				"metallicFactor":0,
				"roughnessFactor":0.5
			}
		},
		{
			"doubleSided":true,
			"emissiveFactor":[
				0,
				0.9428820610046387,
				1
			],
			"extensions":{
				"KHR_materials_emissive_strength":{
					"emissiveStrength":1.2999999523162842
				}
			},
			"name":"sky2",
			"pbrMetallicRoughness":{
				"baseColorFactor":[
					0,
					0.619941234588623,
					0.8003780841827393,
					1
				],
				"metallicFactor":0
			}
		},
		{
			"doubleSided":true,
			"name":"Material_014",
			"pbrMetallicRoughness":{
				"baseColorFactor":[
					0.8000005483627319,
					0.8000005483627319,
					0.8000005483627319,
					1
				],
				"metallicFactor":0,
				"roughnessFactor":0.5
			}
		},
		{
			"doubleSided":true,
			"name":"Material_013",
			"pbrMetallicRoughness":{
				"baseColorFactor":[
					0.8000005483627319,
					0.8000005483627319,
					0.8000005483627319,
					1
				],
				"metallicFactor":0,
				"roughnessFactor":0.5
			}
		}
	],
	"meshes":[
		{
			"name":"Mesh_2",
			"primitives":[
				{
					"attributes":{
						"POSITION":0,
						"NORMAL":1,
						"TEXCOORD_0":2
					},
					"indices":3,
					"material":0
				}
			]
		},
		{
			"name":"Mesh_5",
			"primitives":[
				{
					"attributes":{
						"POSITION":4,
						"NORMAL":5,
						"TEXCOORD_0":6
					},
					"indices":7,
					"material":1
				},
				{
					"attributes":{
						"POSITION":8,
						"NORMAL":9,
						"TEXCOORD_0":10
					},
					"indices":11,
					"material":2
				},
				{
					"attributes":{
						"POSITION":12,
						"NORMAL":13,
						"TEXCOORD_0":14
					},
					"indices":15,
					"material":3
				},
				{
					"attributes":{
						"POSITION":16,
						"NORMAL":17,
						"TEXCOORD_0":18
					},
					"indices":19,
					"material":4
				},
				{
					"attributes":{
						"POSITION":20,
						"NORMAL":21,
						"TEXCOORD_0":22
					},
					"indices":23,
					"material":5
				},
				{
					"attributes":{
						"POSITION":24,
						"NORMAL":25,
						"TEXCOORD_0":26
					},
					"indices":27,
					"material":6
				},
				{
					"attributes":{
						"POSITION":28,
						"NORMAL":29,
						"TEXCOORD_0":30
					},
					"indices":31,
					"material":7
				}
			]
		},
		{
			"name":"Mesh_9",
			"primitives":[
				{
					"attributes":{
						"POSITION":32,
						"NORMAL":33,
						"TEXCOORD_0":34
					},
					"indices":3,
					"material":3
				}
			]
		},
		{
			"name":"Mesh_5.001",
			"primitives":[
				{
					"attributes":{
						"POSITION":35,
						"NORMAL":36,
						"TEXCOORD_0":37
					},
					"indices":38,
					"material":8
				}
			]
		},
		{
			"name":"Mesh_5.002",
			"primitives":[
				{
					"attributes":{
						"POSITION":39,
						"NORMAL":40,
						"TEXCOORD_0":41
					},
					"indices":42,
					"material":9
				}
			]
		}
	],
	"accessors":[
		{
			"bufferView":0,
			"componentType":5126,
			"count":728,
			"max":[
				-0.6839020252227783,
				1.8195520639419556,
				0.2167842984199524
			],
			"min":[
				-0.885549008846283,
				1.6469700336456299,
				0.055837299674749374
			],
			"type":"VEC3"
		},
		{
			"bufferView":1,
			"componentType":5126,
			"count":728,
			"type":"VEC3"
		},
		{
			"bufferView":2,
			"componentType":5126,
			"count":728,
			"type":"VEC2"
		},
		{
			"bufferView":3,
			"componentType":5123,
			"count":822,
			"type":"SCALAR"
		},
		{
			"bufferView":4,
			"componentType":5126,
			"count":172435,
			"max":[
				59.457698822021484,
				354.8877868652344,
				172.09825134277344
			],
			"min":[
				-2.919544219970703,
				316.84381103515625,
				-156.2213134765625
			],
			"type":"VEC3"
		},
		{
			"bufferView":5,
			"componentType":5126,
			"count":172435,
			"type":"VEC3"
		},
		{
			"bufferView":6,
			"componentType":5126,
			"count":172435,
			"type":"VEC2"
		},
		{
			"bufferView":7,
			"componentType":5125,
			"count":198198,
			"type":"SCALAR"
		},
		{
			"bufferView":8,
			"componentType":5126,
			"count":175076,
			"max":[
				-2.469470977783203,
				310.7513427734375,
				151.82408142089844
			],
			"min":[
				-55.31428527832031,
				281.3056640625,
				-105.3359146118164
			],
			"type":"VEC3"
		},
		{
			"bufferView":9,
			"componentType":5126,
			"count":175076,
			"type":"VEC3"
		},
		{
			"bufferView":10,
			"componentType":5126,
			"count":175076,
			"type":"VEC2"
		},
		{
			"bufferView":11,
			"componentType":5125,
			"count":198198,
			"type":"SCALAR"
		},
		{
			"bufferView":12,
			"componentType":5126,
			"count":20283,
			"max":[
				1.4678001403808594,
				32.56440734863281,
				22.5458984375
			],
			"min":[
				-7.849249839782715,
				-6.875589847564697,
				-27.868000030517578
			],
			"type":"VEC3"
		},
		{
			"bufferView":13,
			"componentType":5126,
			"count":20283,
			"type":"VEC3"
		},
		{
			"bufferView":14,
			"componentType":5126,
			"count":20283,
			"type":"VEC2"
		},
		{
			"bufferView":15,
			"componentType":5123,
			"count":39348,
			"type":"SCALAR"
		},
		{
			"bufferView":16,
			"componentType":5126,
			"count":17010,
			"max":[
				1.9643497467041016,
				31.94586944580078,
				22.988201141357422
			],
			"min":[
				-7.645299911499023,
				-8.514430046081543,
				-27.628700256347656
			],
			"type":"VEC3"
		},
		{
			"bufferView":17,
			"componentType":5126,
			"count":17010,
			"type":"VEC3"
		},
		{
			"bufferView":18,
			"componentType":5126,
			"count":17010,
			"type":"VEC2"
		},
		{
			"bufferView":19,
			"componentType":5123,
			"count":32946,
			"type":"SCALAR"
		},
		{
			"bufferView":20,
			"componentType":5126,
			"count":15299,
			"max":[
				1.2553095817565918,
				31.391441345214844,
				21.259300231933594
			],
			"min":[
				-7.404530048370361,
				-8.449359893798828,
				-27.417999267578125
			],
			"type":"VEC3"
		},
		{
			"bufferView":21,
			"componentType":5126,
			"count":15299,
			"type":"VEC3"
		},
		{
			"bufferView":22,
			"componentType":5126,
			"count":15299,
			"type":"VEC2"
		},
		{
			"bufferView":23,
			"componentType":5123,
			"count":29676,
			"type":"SCALAR"
		},
		{
			"bufferView":24,
			"componentType":5126,
			"count":5,
			"max":[
				2.2326107025146484,
				32.284912109375,
				23.106101989746094
			],
			"min":[
				-8.141989707946777,
				-8.76198959350586,
				-27.96649932861328
			],
			"type":"VEC3"
		},
		{
			"bufferView":25,
			"componentType":5126,
			"count":5,
			"type":"VEC3"
		},
		{
			"bufferView":26,
			"componentType":5126,
			"count":5,
			"type":"VEC2"
		},
		{
			"bufferView":27,
			"componentType":5123,
			"count":6,
			"type":"SCALAR"
		},
		{
			"bufferView":28,
			"componentType":5126,
			"count":4,
			"max":[
				1259.2301025390625,
				992.178955078125,
				1434.1300048828125
			],
			"min":[
				-1508.6400146484375,
				254.5449981689453,
				-1430.3299560546875
			],
			"type":"VEC3"
		},
		{
			"bufferView":29,
			"componentType":5126,
			"count":4,
			"type":"VEC3"
		},
		{
			"bufferView":30,
			"componentType":5126,
			"count":4,
			"type":"VEC2"
		},
		{
			"bufferView":31,
			"componentType":5123,
			"count":6,
			"type":"SCALAR"
		},
		{
			"bufferView":32,
			"componentType":5126,
			"count":728,
			"max":[
				-0.6839020252227783,
				1.8195520639419556,
				0.2167842984199524
			],
			"min":[
				-0.885549008846283,
				1.6469700336456299,
				0.055837299674749374
			],
			"type":"VEC3"
		},
		{
			"bufferView":33,
			"componentType":5126,
			"count":728,
			"type":"VEC3"
		},
		{
			"bufferView":34,
			"componentType":5126,
			"count":728,
			"type":"VEC2"
		},
		{
			"bufferView":35,
			"componentType":5126,
			"count":539,
			"max":[
				-5.29362678527832,
				25.26115608215332,
				-7.103770732879639
			],
			"min":[
				-7.085216999053955,
				23.031036376953125,
				-10.15195083618164
			],
			"type":"VEC3"
		},
		{
			"bufferView":36,
			"componentType":5126,
			"count":539,
			"type":"VEC3"
		},
		{
			"bufferView":37,
			"componentType":5126,
			"count":539,
			"type":"VEC2"
		},
		{
			"bufferView":38,
			"componentType":5123,
			"count":660,
			"type":"SCALAR"
		},
		{
			"bufferView":39,
			"componentType":5126,
			"count":547,
			"max":[
				-2.7988297939300537,
				17.81515884399414,
				6.544050216674805
			],
			"min":[
				-5.519859790802002,
				14.428099632263184,
				1.914520025253296
			],
			"type":"VEC3"
		},
		{
			"bufferView":40,
			"componentType":5126,
			"count":547,
			"type":"VEC3"
		},
		{
			"bufferView":41,
			"componentType":5126,
			"count":547,
			"type":"VEC2"
		},
		{
			"bufferView":42,
			"componentType":5123,
			"count":660,
			"type":"SCALAR"
		}
	],
	"bufferViews":[
		{
			"buffer":0,
			"byteLength":8736,
			"byteOffset":0,
			"target":34962
		},
		{
			"buffer":0,
			"byteLength":8736,
			"byteOffset":8736,
			"target":34962
		},
		{
			"buffer":0,
			"byteLength":5824,
			"byteOffset":17472,
			"target":34962
		},
		{
			"buffer":0,
			"byteLength":1644,
			"byteOffset":23296,
			"target":34963
		},
		{
			"buffer":0,
			"byteLength":2069220,
			"byteOffset":24940,
			"target":34962
		},
		{
			"buffer":0,
			"byteLength":2069220,
			"byteOffset":2094160,
			"target":34962
		},
		{
			"buffer":0,
			"byteLength":1379480,
			"byteOffset":4163380,
			"target":34962
		},
		{
			"buffer":0,
			"byteLength":792792,
			"byteOffset":5542860,
			"target":34963
		},
		{
			"buffer":0,
			"byteLength":2100912,
			"byteOffset":6335652,
			"target":34962
		},
		{
			"buffer":0,
			"byteLength":2100912,
			"byteOffset":8436564,
			"target":34962
		},
		{
			"buffer":0,
			"byteLength":1400608,
			"byteOffset":10537476,
			"target":34962
		},
		{
			"buffer":0,
			"byteLength":792792,
			"byteOffset":11938084,
			"target":34963
		},
		{
			"buffer":0,
			"byteLength":243396,
			"byteOffset":12730876,
			"target":34962
		},
		{
			"buffer":0,
			"byteLength":243396,
			"byteOffset":12974272,
			"target":34962
		},
		{
			"buffer":0,
			"byteLength":162264,
			"byteOffset":13217668,
			"target":34962
		},
		{
			"buffer":0,
			"byteLength":78696,
			"byteOffset":13379932,
			"target":34963
		},
		{
			"buffer":0,
			"byteLength":204120,
			"byteOffset":13458628,
			"target":34962
		},
		{
			"buffer":0,
			"byteLength":204120,
			"byteOffset":13662748,
			"target":34962
		},
		{
			"buffer":0,
			"byteLength":136080,
			"byteOffset":13866868,
			"target":34962
		},
		{
			"buffer":0,
			"byteLength":65892,
			"byteOffset":14002948,
			"target":34963
		},
		{
			"buffer":0,
			"byteLength":183588,
			"byteOffset":14068840,
			"target":34962
		},
		{
			"buffer":0,
			"byteLength":183588,
			"byteOffset":14252428,
			"target":34962
		},
		{
			"buffer":0,
			"byteLength":122392,
			"byteOffset":14436016,
			"target":34962
		},
		{
			"buffer":0,
			"byteLength":59352,
			"byteOffset":14558408,
			"target":34963
		},
		{
			"buffer":0,
			"byteLength":60,
			"byteOffset":14617760,
			"target":34962
		},
		{
			"buffer":0,
			"byteLength":60,
			"byteOffset":14617820,
			"target":34962
		},
		{
			"buffer":0,
			"byteLength":40,
			"byteOffset":14617880,
			"target":34962
		},
		{
			"buffer":0,
			"byteLength":12,
			"byteOffset":14617920,
			"target":34963
		},
		{
			"buffer":0,
			"byteLength":48,
			"byteOffset":14617932,
			"target":34962
		},
		{
			"buffer":0,
			"byteLength":48,
			"byteOffset":14617980,
			"target":34962
		},
		{
			"buffer":0,
			"byteLength":32,
			"byteOffset":14618028,
			"target":34962
		},
		{
			"buffer":0,
			"byteLength":12,
			"byteOffset":14618060,
			"target":34963
		},
		{
			"buffer":0,
			"byteLength":8736,
			"byteOffset":14618072,
			"target":34962
		},
		{
			"buffer":0,
			"byteLength":8736,
			"byteOffset":14626808,
			"target":34962
		},
		{
			"buffer":0,
			"byteLength":5824,
			"byteOffset":14635544,
			"target":34962
		},
		{
			"buffer":0,
			"byteLength":6468,
			"byteOffset":14641368,
			"target":34962
		},
		{
			"buffer":0,
			"byteLength":6468,
			"byteOffset":14647836,
			"target":34962
		},
		{
			"buffer":0,
			"byteLength":4312,
			"byteOffset":14654304,
			"target":34962
		},
		{
			"buffer":0,
			"byteLength":1320,
			"byteOffset":14658616,
			"target":34963
		},
		{
			"buffer":0,
			"byteLength":6564,
			"byteOffset":14659936,
			"target":34962
		},
		{
			"buffer":0,
			"byteLength":6564,
			"byteOffset":14666500,
			"target":34962
		},
		{
			"buffer":0,
			"byteLength":4376,
			"byteOffset":14673064,
			"target":34962
		},
		{
			"buffer":0,
			"byteLength":1320,
			"byteOffset":14677440,
			"target":34963
		}
	],
	"buffers":[
		{
			"byteLength":14678760,
			"uri":"3dMenu.bin"
		}
	]
}
