{
    "asset" : {
        "generator" : "Khronos glTF Blender I/O v1.5.17",
        "version" : "2.0"
    },
    "scene" : 0,
    "scenes" : [
        {
            "name" : "Scene",
            "nodes" : [
                0,
                1,
                2
            ]
        }
    ],
    "nodes" : [
        {
            "mesh" : 0,
            "name" : "Plane"
        },
        {
            "name" : "camera-noimp",
            "rotation" : [
                0.7071067690849304,
                0,
                0,
                0.7071068286895752
            ],
            "translation" : [
                0,
                0,
                8
            ]
        },
        {
            "mesh" : 1,
            "name" : "bounds-noimp"
        }
    ],
    "meshes" : [
        {
            "name" : "Plane",
            "primitives" : [
                {
                    "attributes" : {
                        "POSITION" : 0,
                        "NORMAL" : 1,
                        "TEXCOORD_0" : 2
                    },
                    "indices" : 3
                },
                {
                    "attributes" : {
                        "POSITION" : 4,
                        "NORMAL" : 5,
                        "TEXCOORD_0" : 6
                    },
                    "indices" : 7
                }
            ]
        },
        {
            "name" : "Cube.002",
            "primitives" : [
                {
                    "attributes" : {
                        "POSITION" : 8,
                        "NORMAL" : 9,
                        "TEXCOORD_0" : 10
                    },
                    "indices" : 11
                }
            ]
        }
    ],
    "accessors" : [
        {
            "bufferView" : 0,
            "componentType" : 5126,
            "count" : 454,
            "max" : [
                48,
                9,
                48
            ],
            "min" : [
                -48,
                -33,
                -48
            ],
            "type" : "VEC3"
        },
        {
            "bufferView" : 1,
            "componentType" : 5126,
            "count" : 454,
            "type" : "VEC3"
        },
        {
            "bufferView" : 2,
            "componentType" : 5126,
            "count" : 454,
            "type" : "VEC2"
        },
        {
            "bufferView" : 3,
            "componentType" : 5123,
            "count" : 828,
            "type" : "SCALAR"
        },
        {
            "bufferView" : 4,
            "componentType" : 5126,
            "count" : 116,
            "max" : [
                34.28571319580078,
                1,
                34.28571319580078
            ],
            "min" : [
                -34.28571319580078,
                -1,
                -34.28571319580078
            ],
            "type" : "VEC3"
        },
        {
            "bufferView" : 5,
            "componentType" : 5126,
            "count" : 116,
            "type" : "VEC3"
        },
        {
            "bufferView" : 6,
            "componentType" : 5126,
            "count" : 116,
            "type" : "VEC2"
        },
        {
            "bufferView" : 7,
            "componentType" : 5123,
            "count" : 192,
            "type" : "SCALAR"
        },
        {
            "bufferView" : 8,
            "componentType" : 5126,
            "count" : 48,
            "max" : [
                1,
                1,
                1
            ],
            "min" : [
                -1,
                -1,
                -1
            ],
            "type" : "VEC3"
        },
        {
            "bufferView" : 9,
            "componentType" : 5126,
            "count" : 48,
            "type" : "VEC3"
        },
        {
            "bufferView" : 10,
            "componentType" : 5126,
            "count" : 48,
            "type" : "VEC2"
        },
        {
            "bufferView" : 11,
            "componentType" : 5123,
            "count" : 72,
            "type" : "SCALAR"
        }
    ],
    "bufferViews" : [
        {
            "buffer" : 0,
            "byteLength" : 5448,
            "byteOffset" : 0
        },
        {
            "buffer" : 0,
            "byteLength" : 5448,
            "byteOffset" : 5448
        },
        {
            "buffer" : 0,
            "byteLength" : 3632,
            "byteOffset" : 10896
        },
        {
            "buffer" : 0,
            "byteLength" : 1656,
            "byteOffset" : 14528
        },
        {
            "buffer" : 0,
            "byteLength" : 1392,
            "byteOffset" : 16184
        },
        {
            "buffer" : 0,
            "byteLength" : 1392,
            "byteOffset" : 17576
        },
        {
            "buffer" : 0,
            "byteLength" : 928,
            "byteOffset" : 18968
        },
        {
            "buffer" : 0,
            "byteLength" : 384,
            "byteOffset" : 19896
        },
        {
            "buffer" : 0,
            "byteLength" : 576,
            "byteOffset" : 20280
        },
        {
            "buffer" : 0,
            "byteLength" : 576,
            "byteOffset" : 20856
        },
        {
            "buffer" : 0,
            "byteLength" : 384,
            "byteOffset" : 21432
        },
        {
            "buffer" : 0,
            "byteLength" : 144,
            "byteOffset" : 21816
        }
    ],
    "buffers" : [
        {
            "byteLength" : 21960,
            "uri" : "data:application/octet-stream;base64,"
        }
    ]
}
