{
  "accessors": [
    {
      "bufferView": 1,
      "componentType": 5126,
      "count": 1020,
      "max": [
        0.6796600222587585,
        0.976580023765564,
        1.0308899879455566
      ],
      "min": [
        -0.6796600222587585,
        -0.9770900011062622,
        -0.5259799957275391
      ],
      "type": "VEC3"
    },
    {
      "bufferView": 1,
      "byteOffset": 12240,
      "componentType": 5126,
      "count": 1020,
      "max": [
        0.9991486668586731,
        0.9992775917053223,
        0.9927182197570801
      ],
      "min": [
        -0.9991486668586731,
        -0.9933292865753174,
        -0.9969350099563599
      ],
      "type": "VEC3"
    },
    {
      "bufferView": 0,
      "componentType": 5125,
      "count": 1284,
      "type": "SCALAR"
    },
    {
      "bufferView": 1,
      "byteOffset": 24480,
      "componentType": 5126,
      "count": 380,
      "max": [
        0.5947700142860413,
        -0.011620000004768372,
        -0.07998000085353851
      ],
      "min": [
        -0.5947700142860413,
        -0.9467999935150146,
        -0.9572200179100037
      ],
      "type": "VEC3"
    },
    {
      "bufferView": 1,
      "byteOffset": 29040,
      "componentType": 5126,
      "count": 380,
      "max": [
        0.9912604689598083,
        0.9954445362091064,
        0.9996761679649353
      ],
      "min": [
        -0.9912604689598083,
        -0.954461932182312,
        -0.9907907247543335
      ],
      "type": "VEC3"
    },
    {
      "bufferView": 0,
      "byteOffset": 5136,
      "componentType": 5125,
      "count": 504,
      "type": "SCALAR"
    }
  ],
  "asset": {
    "extras": {
      "author": "Vladimir E. (https://sketchfab.com/Room_42)",
      "license": "CC-BY-NC-4.0 (http://creativecommons.org/licenses/by-nc/4.0/)",
      "source": "https://sketchfab.com/3d-models/low-poly-skull-7dc37b0f8edf4e89843b28db268fc973",
      "title": "Low-Poly Skull"
    },
    "generator": "Sketchfab-12.65.0",
    "version": "2.0"
  },
  "bufferViews": [
    {
      "buffer": 0,
      "byteLength": 7152,
      "name": "floatBufferViews",
      "target": 34963
    },
    {
      "buffer": 0,
      "byteLength": 33600,
      "byteOffset": 7152,
      "byteStride": 12,
      "name": "floatBufferViews",
      "target": 34962
    }
  ],
  "buffers": [
    {
      "byteLength": 40752,
      "uri": "scene.bin"
    }
  ],
  "materials": [
    {
      "name": "Material",
      "pbrMetallicRoughness": {
        "baseColorFactor": [
          0.0,
          0.2773084158532825,
          0.9769151581,
          1.0
        ],
        "metallicFactor": 0.8092132947,
        "roughnessFactor": 0.7967909345
      }
    }
  ],
  "meshes": [
    {
      "name": "Cube_0",
      "primitives": [
        {
          "attributes": {
            "NORMAL": 1,
            "POSITION": 0
          },
          "indices": 2,
          "material": 0,
          "mode": 4
        }
      ]
    },
    {
      "name": "Cube.001_0",
      "primitives": [
        {
          "attributes": {
            "NORMAL": 4,
            "POSITION": 3
          },
          "indices": 5,
          "material": 0,
          "mode": 4
        }
      ]
    }
  ],
  "nodes": [
    {
      "children": [
        1
      ],
      "matrix": [
        1.0,
        0.0,
        0.0,
        0.0,
        0.0,
        2.220446049250313e-16,
        -1.0,
        0.0,
        0.0,
        1.0,
        2.220446049250313e-16,
        0.0,
        0.0,
        0.0,
        0.0,
        1.0
      ],
      "name": "Sketchfab_model"
    },
    {
      "children": [
        2,
        4,
        6,
        8
      ],
      "name": "Root"
    },
    {
      "children": [
        3
      ],
      "name": "Cube"
    },
    {
      "mesh": 0,
      "name": "Cube_0"
    },
    {
      "children": [
        5
      ],
      "name": "Cube.001"
    },
    {
      "mesh": 1,
      "name": "Cube.001_0"
    },
    {
      "children": [
        7
      ],
      "matrix": [
        0.8711400000000001,
        0.12582,
        0.47464,
        0.0,
        -0.39361000000000007,
        0.7568300000000001,
        0.5218,
        0.0,
        -0.29358000000000006,
        -0.6413800000000001,
        0.7088300000000001,
        0.0,
        0.0,
        0.0,
        3.8746699999999996,
        1.0
      ],
      "name": "Sun"
    },
    {
      "name": "Sun"
    },
    {
      "children": [
        9
      ],
      "matrix": [
        0.35617000000000004,
        -0.93022,
        0.08846000000000002,
        0.0,
        0.7100700000000001,
        0.20790000000000003,
        -0.6727400000000002,
        0.0,
        0.60741,
        0.3024200000000001,
        0.7345700000000001,
        0.0,
        7.41844,
        -0.03372000000000001,
        5.2310300000000005,
        1.0
      ],
      "name": "Sun.001"
    },
    {
      "name": "Sun.001"
    }
  ],
  "scene": 0,
  "scenes": [
    {
      "name": "Sketchfab_Scene",
      "nodes": [
        0
      ]
    }
  ]
}
